<?xml version="1.0" encoding="UTF-8"?>
<svg xmlns="http://www.w3.org/2000/svg" width="184" height="40" viewBox="0 0 184 40" fill="none">
  <g clip-path="url(#clip0_3691_26077)">
    <path fill-rule="evenodd" clip-rule="evenodd" d="M85.0016 10.1327C84.9596 10.0363 84.8751 9.99066 84.7906 10.0016C84.7061 9.99066 84.622 10.0363 84.58 10.1327L76.2996 26.8918H80.9401L81.8606 24.8977H87.7211L88.6416 26.8918H93.282L85.0016 10.1327ZM83.2507 21.7781L84.7906 18.367L86.331 21.7781H83.2507ZM101.204 27C96.4853 27 92.4582 23.509 92.4582 18.5398C92.4582 13.5701 96.4605 10.1039 100.957 10.1039C104.589 10.1039 106.812 11.6068 108.221 13.6431L104.836 15.8973C104.194 14.9281 103.155 13.934 101.032 13.934C98.5606 13.934 97.053 15.9459 97.053 18.5398C97.053 21.1336 98.6096 23.1693 101.179 23.1693C103.353 23.1693 104.415 22.2001 105.132 20.8908L108.591 23.0725C106.936 25.8123 104.613 27 101.204 27ZM110.32 10.4082H122.104V14.1173H114.816V16.8039H120.894V20.3188H114.816V23.1832H122.45V26.8918H110.32V10.4082ZM141.819 10.4082H148.687C152.022 10.4082 154.504 11.9112 154.504 14.432C154.504 16.9494 153.388 17.7438 152.301 18.2528C154.129 18.7622 155.238 20.0025 155.238 21.9469C155.238 25.0983 153.159 26.8918 148.983 26.8918H141.819V10.4082ZM148.341 16.8804C149.748 16.8804 150.062 16.2285 150.062 15.2319C150.062 14.2389 149.379 13.8988 148.391 13.8988H146.167V16.8804H148.341ZM148.885 23.4012C150.614 23.4012 150.832 22.36 150.832 21.5348C150.832 20.7984 150.587 19.934 148.885 19.934H146.167V23.4012H148.885ZM157.581 10.4082H162.077V23.1832H169.217V26.8918H157.581V10.4082ZM171.292 10.4082H183.077V14.1173H175.788V16.8476H181.866V20.363H175.788V23.1832H183.422V26.8918H171.292V10.4082ZM132.318 10.1327C132.276 10.0363 132.192 9.99066 132.108 10.0016C132.023 9.99066 131.939 10.0363 131.897 10.1327L123.616 26.8918H128.257L129.178 24.8977H135.038L135.958 26.8918H140.599L132.318 10.1327ZM130.567 21.7781L132.108 18.367L133.648 21.7781H130.567Z" fill="#12BDCD"></path>
    <mask id="mask0_3691_26077" style="mask-type:alpha" maskUnits="userSpaceOnUse" x="0" y="8" width="30" height="18">
      <path d="M0.0303192 8.73849H29.344V25.663H0.0303192V8.73849Z" fill="white"></path>
    </mask>
    <g mask="url(#mask0_3691_26077)">
      <path fill-rule="evenodd" clip-rule="evenodd" d="M24.6382 18.342H2.28192C3.29756 20.9335 4.59667 23.3855 6.13833 25.663H21.0516L24.6382 18.342Z" fill="#12BDCD"></path>
      <path fill-rule="evenodd" clip-rule="evenodd" d="M29.344 8.73849H0.606356C0.244059 8.73849 -0.0404222 9.05149 0.00454906 9.40699C0.290546 11.6755 0.780178 13.8805 1.45424 16.006H25.7832L29.344 8.73849Z" fill="#12BDCD"></path>
    </g>
    <path fill-rule="evenodd" clip-rule="evenodd" d="M19.7065 28H7.57943C9.79407 30.8039 12.3956 33.2895 15.3012 35.3816C15.6143 35.6064 16.0541 35.5001 16.2224 35.1554L19.7065 28Z" fill="#12BDCD"></path>
    <path fill-rule="evenodd" clip-rule="evenodd" d="M50.5296 18.5H72.7626C71.752 21.1549 70.4606 23.6668 68.928 26H54.0968L50.5296 18.5Z" fill="#12BDCD"></path>
    <path fill-rule="evenodd" clip-rule="evenodd" d="M45.9819 8.5H74.6833C75.0452 8.5 75.3293 8.82301 75.2844 9.18989C74.9987 11.531 74.5097 13.8065 73.8365 16H49.5382L45.9819 8.5Z" fill="#12BDCD"></path>
    <path fill-rule="evenodd" clip-rule="evenodd" d="M55.2243 27.999H67.2771C65.076 30.7685 62.4904 33.2235 59.6021 35.29C59.2914 35.512 58.8543 35.407 58.687 35.0665L55.2243 27.999Z" fill="#12BDCD"></path>
    <path fill-rule="evenodd" clip-rule="evenodd" d="M38.1064 0.733496C38.0088 0.507996 37.8128 0.400496 37.6167 0.426496C37.4202 0.400496 37.2246 0.507996 37.1266 0.733496L17.89 40H28.671L30.8094 35.3275H44.4241L46.5625 40H57.343L38.1064 0.733496ZM34.0382 28.018L37.6167 20.026L41.1947 28.018H34.0382Z" fill="#12BDCD"></path>
  </g>
  <defs>
    <clipPath id="clip0_3691_26077">
      <rect width="184" height="40" fill="white"></rect>
    </clipPath>
  </defs>
</svg>
