<svg xmlns="http://www.w3.org/2000/svg" version="1.1" xmlns:xlink="http://www.w3.org/1999/xlink" xmlns:svgjs="http://svgjs.dev/svgjs" width="1000" height="623" viewBox="0 0 1000 623"><g transform="matrix(1,0,0,1,-0.6060606060606233,0.2522267206477409)"><svg viewBox="0 0 396 247" data-background-color="#ffffff" preserveAspectRatio="xMidYMid meet" height="623" width="1000" xmlns="http://www.w3.org/2000/svg" xmlns:xlink="http://www.w3.org/1999/xlink"><g id="tight-bounds" transform="matrix(1,0,0,1,0.2400000000000091,-0.09999999999999432)"><svg viewBox="0 0 395.52 247.2" height="247.2" width="395.52"><g><svg></svg></g><g><svg viewBox="0 0 395.52 247.2" height="247.2" width="395.52"><g transform="matrix(1,0,0,1,75.54432,76.65190179673237)"><svg viewBox="0 0 244.43135999999998 93.89619640653522" height="93.89619640653522" width="244.43135999999998"><g><svg viewBox="0 0 425.4744100196093 163.4423208591399" height="93.89619640653522" width="244.43135999999998"><g transform="matrix(1,0,0,1,181.0430500196093,0)"><svg viewBox="0 0 244.43135999999998 163.4423208591399" height="163.4423208591399" width="244.43135999999998"><g id="textblocktransform"><svg viewBox="0 0 244.43135999999998 163.4423208591399" height="163.4423208591399" width="244.43135999999998" id="textblock"><g><svg viewBox="0 0 244.43135999999998 127.01193488372093" height="127.01193488372093" width="244.43135999999998"><g transform="matrix(1,0,0,1,0,0)"><svg width="244.43135999999998" viewBox="-0.550000011920929 -35.75 68.80000305175781 35.75" height="127.01193488372093" data-palette-color="#804dee"><g class="wordmark-text-0" data-fill-palette-color="primary" id="text-0"><path d="M-0.55-2.15L4.3-2.15 4.3-34.95 17.55-34.95Q25.7-34.95 29.18-32.2 32.65-29.45 32.65-23.35L32.65-23.35Q32.65-14.95 26-12.5L26-12.5 33.3-2.15 38-2.15 38 0 25.25 0 17.5-11.15 12.1-11.15 12.1 0-0.55 0-0.55-2.15ZM17.8-17.9Q21.8-17.9 23.25-19.2 24.7-20.5 24.7-23.33 24.7-26.15 23.2-27.2 21.7-28.25 17.95-28.25L17.95-28.25 12.1-28.25 12.1-17.9 17.8-17.9ZM61.85-2.15L68.25-2.15 68.25 0 36.35 0 36.35-2.15 43.15-2.15Q40.4-3.55 38.15-5.75L38.15-5.75 42.8-11.45Q48.45-6.5 53.25-6.5L53.25-6.5Q55.4-6.5 56.62-7.43 57.85-8.35 57.85-9.93 57.85-11.5 56.55-12.43 55.25-13.35 51.4-14.3L51.4-14.3Q45.3-15.75 42.47-18.07 39.65-20.4 39.65-25.38 39.65-30.35 43.22-33.05 46.8-35.75 52.15-35.75L52.15-35.75Q55.65-35.75 59.15-34.55 62.65-33.35 65.25-31.15L65.25-31.15 61.3-25.45Q56.75-28.9 51.9-28.9L51.9-28.9Q49.95-28.9 48.82-27.98 47.7-27.05 47.7-25.53 47.7-24 49.07-23.1 50.45-22.2 55.42-20.98 60.4-19.75 63.15-17.3 65.9-14.85 65.9-10.5L65.9-10.5Q65.9-5.1 61.85-2.15L61.85-2.15Z" fill="#804dee" data-fill-palette-color="primary"></path></g></svg></g></svg></g><g transform="matrix(1,0,0,1,0,156.99640442333023)"><svg viewBox="0 0 143.50565145599998 6.445916435809685" height="6.445916435809685" width="143.50565145599998"><g transform="matrix(1,0,0,1,0,0)"><svg width="143.50565145599998" viewBox="2.0999999046325684 -34.599998474121094 939.4100341796875 42.19999694824219" height="6.445916435809685" data-palette-color="#ffffff"><path d="M11.25 0.3L11.25 0.3Q7.3 0.3 4.7-2.93 2.1-6.15 2.1-11.75L2.1-11.75Q2.1-17.45 4.67-20.83 7.25-24.2 11.25-24.2L11.25-24.2Q15.3-24.2 18.75-21.35L18.75-21.35Q20.1-23.85 23.1-23.85L23.1-23.85Q25.8-23.85 27.3-22.68 28.8-21.5 28.8-18.35L28.8-18.35 28.8-5.35Q28.8-2.35 27.55-1.18 26.3 0 23.15 0L23.15 0Q19.85 0 18.8-1.85L18.8-1.85Q15.6 0.3 11.25 0.3ZM18.05-7.2L18.05-16.55Q17.2-18 15.85-18L15.85-18Q14.55-18 13.75-16.1 12.95-14.2 12.95-11.75L12.95-11.75Q12.95-9.45 13.7-7.65 14.45-5.85 15.8-5.85L15.8-5.85Q17.2-5.85 18.05-7.2L18.05-7.2ZM58-28.7L58-7.55Q58-3.5 56.65-1.75 55.3 0 52.5 0L52.5 0Q49.7 0 48.4-1.58 47.1-3.15 47.1-7.15L47.1-7.15 47-28.25Q47-29.55 47.27-30.55 47.55-31.55 48.02-32.25 48.5-32.95 49.2-33.4 49.9-33.85 50.72-34.05 51.55-34.25 52.5-34.25L52.5-34.25Q55.25-34.25 56.62-33.15 58-32.05 58-28.7L58-28.7ZM62.44-30.8L62.44-30.8Q62.44-32.45 63.87-33.52 65.29-34.6 67.89-34.6L67.89-34.6Q73.34-34.6 73.34-30.8L73.34-30.8Q73.34-28.7 71.97-27.85 70.59-27 67.89-27L67.89-27Q65.54-27 63.99-27.9 62.44-28.8 62.44-30.8ZM73.29-18.35L73.29-5.35Q73.29-2.35 72.04-1.18 70.79 0 67.64 0L67.64 0Q64.69 0 63.62-1.38 62.54-2.75 62.54-5.9L62.54-5.9 62.54-18.2Q62.54-20.75 63.92-22.3 65.29-23.85 67.59-23.85L67.59-23.85Q70.29-23.85 71.79-22.68 73.29-21.5 73.29-18.35L73.29-18.35ZM92.49-26.3L92.49-26.3Q91.44-25.45 91.44-22.35L91.44-22.35Q94.79-22.35 96.09-21.73 97.39-21.1 97.39-19L97.39-19Q97.39-17.3 95.99-16.78 94.59-16.25 91.44-16.25L91.44-16.25 91.44-7.5Q91.44-3.25 90.12-1.63 88.79 0 85.94 0L85.94 0Q83.14 0 81.84-1.58 80.54-3.15 80.54-7.15L80.54-7.15 80.59-16.25Q76.89-16.3 76.89-19.15L76.89-19.15Q76.89-22.1 80.64-22.3L80.64-22.3Q80.69-28.75 82.52-31.48 84.34-34.2 89.54-34.2L89.54-34.2Q93.69-34.2 96.02-32.5 98.34-30.8 98.34-29.05L98.34-29.05Q98.34-28.3 97.72-27.73 97.09-27.15 95.94-27.15L95.94-27.15Q93.49-27.15 92.49-26.3ZM113.59 0.3L113.59 0.3Q107.49 0.3 103.51-2.85 99.54-6 99.54-11.45L99.54-11.45Q99.54-17.35 103.46-20.78 107.39-24.2 113.59-24.2L113.59-24.2Q119.44-24.2 122.16-22.13 124.89-20.05 124.89-16.45L124.89-16.45Q124.89-15.75 124.71-15.1 124.54-14.45 124.16-13.83 123.79-13.2 123.16-12.68 122.54-12.15 121.74-11.73 120.94-11.3 119.84-11.08 118.74-10.85 117.49-10.85L117.49-10.85 110.44-10.8Q110.94-9.2 112.24-8.28 113.54-7.35 115.54-7.35L115.54-7.35Q117.69-7.35 119.94-7.9L119.94-7.9Q120.89-8.15 122.01-8.7 123.14-9.25 123.64-9.25L123.64-9.25Q124.49-9.25 124.96-8.75 125.44-8.25 125.44-7.5L125.44-7.5Q125.44-6.6 124.64-5.33 123.84-4.05 122.41-2.78 120.99-1.5 118.64-0.6 116.29 0.3 113.59 0.3ZM110.19-14L110.19-14Q113.64-14.05 113.94-14.05L113.94-14.05Q114.69-14.05 115.04-14.95L115.04-14.95Q115.29-15.6 115.29-16.75L115.29-16.75Q115.29-19.9 113.39-19.9L113.39-19.9Q112.69-19.9 112.01-19.15 111.34-18.4 110.84-17.03 110.34-15.65 110.19-14ZM132.09-10.7L132.09-10.7 132.09-16.6Q130.84-16.65 130.09-17.03 129.34-17.4 129.01-18 128.69-18.6 128.69-19.5L128.69-19.5Q128.69-22.35 132.14-22.6L132.14-22.6 132.14-27.25Q132.14-29.15 134.89-30.68 137.64-32.2 140.34-32.2L140.34-32.2Q141.99-32.2 142.49-31.25 142.99-30.3 142.99-28.4L142.99-28.4 143.04-22.65 144.39-22.65Q147.14-22.65 148.16-21.93 149.19-21.2 149.19-19.3L149.19-19.3Q149.19-18.5 148.89-17.95 148.59-17.4 147.91-17.1 147.24-16.8 146.29-16.68 145.34-16.55 143.94-16.55L143.94-16.55 143.04-16.55 143.04-11.05Q143.04-10.25 143.11-9.73 143.19-9.2 143.34-8.9 143.49-8.6 143.76-8.5 144.04-8.4 144.44-8.4L144.44-8.4Q145.04-8.4 145.44-8.83 145.84-9.25 146.06-9.78 146.29-10.3 146.66-10.73 147.04-11.15 147.54-11.15L147.54-11.15Q148.69-11.15 149.31-10.6 149.94-10.05 149.94-9.25L149.94-9.25Q149.94-7.9 149.41-6.35 148.89-4.8 147.89-3.35 146.89-1.9 145.11-0.95 143.34 0 141.14 0L141.14 0Q136.19 0 134.14-2.5 132.09-5 132.09-10.7ZM154.48-30.8L154.48-30.8Q154.48-32.45 155.91-33.52 157.33-34.6 159.93-34.6L159.93-34.6Q165.38-34.6 165.38-30.8L165.38-30.8Q165.38-28.7 164.01-27.85 162.63-27 159.93-27L159.93-27Q157.58-27 156.03-27.9 154.48-28.8 154.48-30.8ZM165.33-18.35L165.33-5.35Q165.33-2.35 164.08-1.18 162.83 0 159.68 0L159.68 0Q156.73 0 155.66-1.38 154.58-2.75 154.58-5.9L154.58-5.9 154.58-18.2Q154.58-20.75 155.96-22.3 157.33-23.85 159.63-23.85L159.63-23.85Q162.33-23.85 163.83-22.68 165.33-21.5 165.33-18.35L165.33-18.35ZM199.53-4.15L199.53-13.2Q199.53-16 197.28-16L197.28-16Q196.28-16 195.78-14.85 195.28-13.7 195.28-11.95L195.28-11.95Q195.28-9.3 195.21-7.55 195.13-5.8 194.88-4.4 194.63-3 194.28-2.2 193.93-1.4 193.33-0.88 192.73-0.35 191.98-0.18 191.23 0 190.08 0L190.08 0Q188.33 0 187.26-0.5 186.18-1 185.73-1.9 185.28-2.8 185.28-4.15L185.28-4.15 185.28-13.2Q185.28-16 183.03-16L183.03-16Q182.13-16 181.56-14.98 180.98-13.95 180.98-12.3L180.98-12.3 180.98-5.35Q180.98-2.35 179.73-1.18 178.48 0 175.33 0L175.33 0Q172.38 0 171.31-1.38 170.23-2.75 170.23-5.9L170.23-5.9 170.23-18.2Q170.23-20.75 171.61-22.3 172.98-23.85 175.28-23.85L175.28-23.85Q179.38-23.85 180.48-21.2L180.48-21.2Q182.38-22.6 184.21-23.15 186.03-23.7 188.48-23.7L188.48-23.7Q192.18-23.7 193.83-20.5L193.83-20.5Q194.08-20.7 194.33-20.9L194.33-20.9Q198.18-23.7 203.78-23.7L203.78-23.7Q207.33-23.7 208.88-21 210.43-18.3 210.43-11.95L210.43-11.95Q210.43-9.3 210.36-7.55 210.28-5.8 210.03-4.4 209.78-3 209.41-2.2 209.03-1.4 208.36-0.88 207.68-0.35 206.86-0.18 206.03 0 204.78 0L204.78 0Q202.88 0 201.71-0.5 200.53-1 200.03-1.9 199.53-2.8 199.53-4.15L199.53-4.15ZM228.88 0.3L228.88 0.3Q222.78 0.3 218.8-2.85 214.83-6 214.83-11.45L214.83-11.45Q214.83-17.35 218.75-20.78 222.68-24.2 228.88-24.2L228.88-24.2Q234.73-24.2 237.45-22.13 240.18-20.05 240.18-16.45L240.18-16.45Q240.18-15.75 240-15.1 239.83-14.45 239.45-13.83 239.08-13.2 238.45-12.68 237.83-12.15 237.03-11.73 236.23-11.3 235.13-11.08 234.03-10.85 232.78-10.85L232.78-10.85 225.73-10.8Q226.23-9.2 227.53-8.28 228.83-7.35 230.83-7.35L230.83-7.35Q232.98-7.35 235.23-7.9L235.23-7.9Q236.18-8.15 237.3-8.7 238.43-9.25 238.93-9.25L238.93-9.25Q239.78-9.25 240.25-8.75 240.73-8.25 240.73-7.5L240.73-7.5Q240.73-6.6 239.93-5.33 239.13-4.05 237.7-2.78 236.28-1.5 233.93-0.6 231.58 0.3 228.88 0.3ZM225.48-14L225.48-14Q228.93-14.05 229.23-14.05L229.23-14.05Q229.98-14.05 230.33-14.95L230.33-14.95Q230.58-15.6 230.58-16.75L230.58-16.75Q230.58-19.9 228.68-19.9L228.68-19.9Q227.98-19.9 227.3-19.15 226.63-18.4 226.13-17.03 225.63-15.65 225.48-14ZM269.37-28.7L269.37-7.55Q269.37-3.5 268.02-1.75 266.67 0 263.87 0L263.87 0Q261.07 0 259.77-1.58 258.47-3.15 258.47-7.15L258.47-7.15 258.37-28.25Q258.37-29.55 258.65-30.55 258.92-31.55 259.4-32.25 259.87-32.95 260.57-33.4 261.27-33.85 262.1-34.05 262.92-34.25 263.87-34.25L263.87-34.25Q266.62-34.25 268-33.15 269.37-32.05 269.37-28.7L269.37-28.7ZM287.72 0.3L287.72 0.3Q281.62 0.3 277.65-2.85 273.67-6 273.67-11.45L273.67-11.45Q273.67-17.35 277.6-20.78 281.52-24.2 287.72-24.2L287.72-24.2Q293.57-24.2 296.3-22.13 299.02-20.05 299.02-16.45L299.02-16.45Q299.02-15.75 298.85-15.1 298.67-14.45 298.3-13.83 297.92-13.2 297.3-12.68 296.67-12.15 295.87-11.73 295.07-11.3 293.97-11.08 292.87-10.85 291.62-10.85L291.62-10.85 284.57-10.8Q285.07-9.2 286.37-8.28 287.67-7.35 289.67-7.35L289.67-7.35Q291.82-7.35 294.07-7.9L294.07-7.9Q295.02-8.15 296.15-8.7 297.27-9.25 297.77-9.25L297.77-9.25Q298.62-9.25 299.1-8.75 299.57-8.25 299.57-7.5L299.57-7.5Q299.57-6.6 298.77-5.33 297.97-4.05 296.55-2.78 295.12-1.5 292.77-0.6 290.42 0.3 287.72 0.3ZM284.32-14L284.32-14Q287.77-14.05 288.07-14.05L288.07-14.05Q288.82-14.05 289.17-14.95L289.17-14.95Q289.42-15.6 289.42-16.75L289.42-16.75Q289.42-19.9 287.52-19.9L287.52-19.9Q286.82-19.9 286.15-19.15 285.47-18.4 284.97-17.03 284.47-15.65 284.32-14ZM312.67 0.3L312.67 0.3Q308.72 0.3 306.12-2.93 303.52-6.15 303.52-11.75L303.52-11.75Q303.52-17.45 306.09-20.83 308.67-24.2 312.67-24.2L312.67-24.2Q316.72-24.2 320.17-21.35L320.17-21.35Q321.52-23.85 324.52-23.85L324.52-23.85Q327.22-23.85 328.72-22.68 330.22-21.5 330.22-18.35L330.22-18.35 330.22-5.35Q330.22-2.35 328.97-1.18 327.72 0 324.57 0L324.57 0Q321.27 0 320.22-1.85L320.22-1.85Q317.02 0.3 312.67 0.3ZM319.47-7.2L319.47-16.55Q318.62-18 317.27-18L317.27-18Q315.97-18 315.17-16.1 314.37-14.2 314.37-11.75L314.37-11.75Q314.37-9.45 315.12-7.65 315.87-5.85 317.22-5.85L317.22-5.85Q318.62-5.85 319.47-7.2L319.47-7.2ZM345.67-15.4L345.67-5.35Q345.67-2.35 344.42-1.18 343.17 0 339.97 0L339.97 0Q337.02 0 335.97-1.38 334.92-2.75 334.92-5.9L334.92-5.9 334.92-18.2Q334.92-19.9 335.52-21.18 336.12-22.45 337.27-23.15 338.42-23.85 339.97-23.85L339.97-23.85Q343.77-23.85 344.97-21.65L344.97-21.65Q347.87-23.85 350.57-23.85L350.57-23.85Q355.82-23.85 355.82-18.85L355.82-18.85Q355.82-16.85 354.67-15.6 353.52-14.35 351.67-14.35L351.67-14.35Q350.57-14.35 349.89-14.8 349.22-15.25 348.64-15.7 348.07-16.15 347.32-16.15L347.32-16.15Q346.22-16.15 345.67-15.4L345.67-15.4ZM373.91-4.15L373.86-13.45Q373.86-16.25 371.66-16.25L371.66-16.25Q370.61-16.25 369.94-15.38 369.26-14.5 369.16-13.05L369.16-13.05 369.16-5.35Q369.16-2.3 367.91-1.15 366.66 0 363.51 0L363.51 0Q360.56 0 359.49-1.38 358.41-2.75 358.41-5.9L358.41-5.9 358.41-18.2Q358.41-20.75 359.79-22.3 361.16-23.85 363.46-23.85L363.46-23.85Q365.36-23.85 366.66-23.3 367.96-22.75 368.61-21.4L368.61-21.4Q372.51-23.95 378.11-23.95L378.11-23.95Q381.66-23.95 383.24-21.15 384.81-18.35 384.81-11.95L384.81-11.95Q384.81-8.8 384.66-6.83 384.51-4.85 384.19-3.43 383.86-2 383.16-1.3 382.46-0.6 381.54-0.3 380.61 0 379.16 0L379.16 0Q376.36 0 375.14-1.05 373.91-2.1 373.91-4.15L373.91-4.15ZM402.56 0.3L402.56 0.3Q396.46 0.3 392.49-2.85 388.51-6 388.51-11.45L388.51-11.45Q388.51-17.35 392.44-20.78 396.36-24.2 402.56-24.2L402.56-24.2Q408.41-24.2 411.14-22.13 413.86-20.05 413.86-16.45L413.86-16.45Q413.86-15.75 413.69-15.1 413.51-14.45 413.14-13.83 412.76-13.2 412.14-12.68 411.51-12.15 410.71-11.73 409.91-11.3 408.81-11.08 407.71-10.85 406.46-10.85L406.46-10.85 399.41-10.8Q399.91-9.2 401.21-8.28 402.51-7.35 404.51-7.35L404.51-7.35Q406.66-7.35 408.91-7.9L408.91-7.9Q409.86-8.15 410.99-8.7 412.11-9.25 412.61-9.25L412.61-9.25Q413.46-9.25 413.94-8.75 414.41-8.25 414.41-7.5L414.41-7.5Q414.41-6.6 413.61-5.33 412.81-4.05 411.39-2.78 409.96-1.5 407.61-0.6 405.26 0.3 402.56 0.3ZM399.16-14L399.16-14Q402.61-14.05 402.91-14.05L402.91-14.05Q403.66-14.05 404.01-14.95L404.01-14.95Q404.26-15.6 404.26-16.75L404.26-16.75Q404.26-19.9 402.36-19.9L402.36-19.9Q401.66-19.9 400.99-19.15 400.31-18.4 399.81-17.03 399.31-15.65 399.16-14ZM429.31-15.4L429.31-5.35Q429.31-2.35 428.06-1.18 426.81 0 423.61 0L423.61 0Q420.66 0 419.61-1.38 418.56-2.75 418.56-5.9L418.56-5.9 418.56-18.2Q418.56-19.9 419.16-21.18 419.76-22.45 420.91-23.15 422.06-23.85 423.61-23.85L423.61-23.85Q427.41-23.85 428.61-21.65L428.61-21.65Q431.51-23.85 434.21-23.85L434.21-23.85Q439.46-23.85 439.46-18.85L439.46-18.85Q439.46-16.85 438.31-15.6 437.16-14.35 435.31-14.35L435.31-14.35Q434.21-14.35 433.53-14.8 432.86-15.25 432.28-15.7 431.71-16.15 430.96-16.15L430.96-16.15Q429.86-16.15 429.31-15.4L429.31-15.4ZM434.76-3.45L434.76-3.45Q434.76-4.55 435.36-5.4 435.96-6.25 437.18-6.75 438.41-7.25 440.16-7.25L440.16-7.25Q442.86-7.25 444.56-6.15 446.26-5.05 446.26-2.45L446.26-2.45Q446.26-0.55 445.51 1.15 444.76 2.85 443.58 4 442.41 5.15 441.03 5.98 439.66 6.8 438.41 7.2 437.16 7.6 436.21 7.6L436.21 7.6Q435.31 7.6 434.78 7.08 434.26 6.55 434.26 5.75L434.26 5.75Q434.26 4.7 435.01 4.35L435.01 4.35Q437.26 3.25 438.31 2.45 439.36 1.65 440.16 0.35L440.16 0.35Q437.81 0.35 436.28-0.55 434.76-1.45 434.76-3.45ZM473.05 0.3L473.05 0.3Q469.1 0.3 466.5-2.93 463.9-6.15 463.9-11.75L463.9-11.75Q463.9-17.45 466.48-20.83 469.05-24.2 473.05-24.2L473.05-24.2Q477.1-24.2 480.55-21.35L480.55-21.35Q481.9-23.85 484.9-23.85L484.9-23.85Q487.6-23.85 489.1-22.68 490.6-21.5 490.6-18.35L490.6-18.35 490.6-5.35Q490.6-2.35 489.35-1.18 488.1 0 484.95 0L484.95 0Q481.65 0 480.6-1.85L480.6-1.85Q477.4 0.3 473.05 0.3ZM479.85-7.2L479.85-16.55Q479-18 477.65-18L477.65-18Q476.35-18 475.55-16.1 474.75-14.2 474.75-11.75L474.75-11.75Q474.75-9.45 475.5-7.65 476.25-5.85 477.6-5.85L477.6-5.85Q479-5.85 479.85-7.2L479.85-7.2ZM510.7-4.15L510.65-13.45Q510.65-16.25 508.45-16.25L508.45-16.25Q507.4-16.25 506.72-15.38 506.05-14.5 505.95-13.05L505.95-13.05 505.95-5.35Q505.95-2.3 504.7-1.15 503.45 0 500.3 0L500.3 0Q497.35 0 496.27-1.38 495.2-2.75 495.2-5.9L495.2-5.9 495.2-18.2Q495.2-20.75 496.57-22.3 497.95-23.85 500.25-23.85L500.25-23.85Q502.15-23.85 503.45-23.3 504.75-22.75 505.4-21.4L505.4-21.4Q509.3-23.95 514.9-23.95L514.9-23.95Q518.45-23.95 520.02-21.15 521.6-18.35 521.6-11.95L521.6-11.95Q521.6-8.8 521.45-6.83 521.3-4.85 520.97-3.43 520.65-2 519.95-1.3 519.25-0.6 518.32-0.3 517.4 0 515.95 0L515.95 0Q513.15 0 511.92-1.05 510.7-2.1 510.7-4.15L510.7-4.15ZM552.75-28.7L552.75-7.5Q552.75-3.45 551.4-1.73 550.05 0 547.25 0L547.25 0Q544.05 0 542.85-2L542.85-2Q539.6 0.35 535 0.35L535 0.35Q531.1 0.35 528.5-2.88 525.9-6.1 525.9-11.7L525.9-11.7Q525.9-17.4 528.45-20.78 531-24.15 535-24.15L535-24.15Q538.6-24.15 541.75-21.85L541.75-21.85 541.75-28.25Q541.75-31.3 543.25-32.77 544.75-34.25 547.25-34.25L547.25-34.25Q550-34.25 551.37-33.15 552.75-32.05 552.75-28.7L552.75-28.7ZM541.85-7.2L541.85-7.2 541.8-16.55Q540.95-17.95 539.6-17.95L539.6-17.95Q538.75-17.95 538.07-17 537.4-16.05 537.05-14.65 536.7-13.25 536.7-11.7L536.7-11.7Q536.7-9.4 537.45-7.6 538.2-5.8 539.55-5.8L539.55-5.8Q539.8-5.8 540.05-5.85 540.3-5.9 540.5-5.98 540.7-6.05 540.9-6.18 541.1-6.3 541.25-6.45 541.4-6.6 541.55-6.8 541.7-7 541.85-7.2ZM568.09-15.4L568.09-5.35Q568.09-2.35 566.84-1.18 565.59 0 562.39 0L562.39 0Q559.44 0 558.39-1.38 557.34-2.75 557.34-5.9L557.34-5.9 557.34-18.2Q557.34-19.9 557.94-21.18 558.54-22.45 559.69-23.15 560.84-23.85 562.39-23.85L562.39-23.85Q566.19-23.85 567.39-21.65L567.39-21.65Q570.29-23.85 572.99-23.85L572.99-23.85Q578.24-23.85 578.24-18.85L578.24-18.85Q578.24-16.85 577.09-15.6 575.94-14.35 574.09-14.35L574.09-14.35Q572.99-14.35 572.32-14.8 571.64-15.25 571.07-15.7 570.49-16.15 569.74-16.15L569.74-16.15Q568.64-16.15 568.09-15.4L568.09-15.4ZM596.09-11.85L596.09-11.85Q596.09-14.45 595.44-16.43 594.79-18.4 593.54-18.4L593.54-18.4Q592.69-18.4 592.04-17.4 591.39-16.4 591.09-14.95 590.79-13.5 590.79-11.85L590.79-11.85Q590.79-9.3 591.49-7.38 592.19-5.45 593.49-5.45 594.79-5.45 595.44-7.35 596.09-9.25 596.09-11.85ZM593.49 0.35L593.49 0.35Q589.59 0.35 586.47-1.05 583.34-2.45 581.47-5.25 579.59-8.05 579.59-11.8L579.59-11.8Q579.59-17.5 583.49-20.85 587.39-24.2 593.49-24.2 599.59-24.2 603.44-20.85 607.29-17.5 607.29-11.8L607.29-11.8Q607.29-6.15 603.37-2.9 599.44 0.35 593.49 0.35ZM611.34-30.8L611.34-30.8Q611.34-32.45 612.76-33.52 614.19-34.6 616.79-34.6L616.79-34.6Q622.24-34.6 622.24-30.8L622.24-30.8Q622.24-28.7 620.86-27.85 619.49-27 616.79-27L616.79-27Q614.44-27 612.89-27.9 611.34-28.8 611.34-30.8ZM622.19-18.35L622.19-5.35Q622.19-2.35 620.94-1.18 619.69 0 616.54 0L616.54 0Q613.59 0 612.51-1.38 611.44-2.75 611.44-5.9L611.44-5.9 611.44-18.2Q611.44-20.75 612.81-22.3 614.19-23.85 616.49-23.85L616.49-23.85Q619.19-23.85 620.69-22.68 622.19-21.5 622.19-18.35L622.19-18.35ZM653.38-28.7L653.38-7.5Q653.38-3.45 652.03-1.73 650.68 0 647.88 0L647.88 0Q644.68 0 643.48-2L643.48-2Q640.23 0.35 635.63 0.35L635.63 0.35Q631.73 0.35 629.13-2.88 626.53-6.1 626.53-11.7L626.53-11.7Q626.53-17.4 629.08-20.78 631.63-24.15 635.63-24.15L635.63-24.15Q639.23-24.15 642.38-21.85L642.38-21.85 642.38-28.25Q642.38-31.3 643.88-32.77 645.38-34.25 647.88-34.25L647.88-34.25Q650.63-34.25 652.01-33.15 653.38-32.05 653.38-28.7L653.38-28.7ZM642.48-7.2L642.48-7.2 642.43-16.55Q641.58-17.95 640.23-17.95L640.23-17.95Q639.38-17.95 638.71-17 638.03-16.05 637.68-14.65 637.33-13.25 637.33-11.7L637.33-11.7Q637.33-9.4 638.08-7.6 638.83-5.8 640.18-5.8L640.18-5.8Q640.43-5.8 640.68-5.85 640.93-5.9 641.13-5.98 641.33-6.05 641.53-6.18 641.73-6.3 641.88-6.45 642.03-6.6 642.18-6.8 642.33-7 642.48-7.2ZM685.23 0.3L685.23 0.3Q679.13 0.3 675.15-2.85 671.18-6 671.18-11.45L671.18-11.45Q671.18-17.35 675.1-20.78 679.03-24.2 685.23-24.2L685.23-24.2Q691.08-24.2 693.8-22.13 696.53-20.05 696.53-16.45L696.53-16.45Q696.53-15.75 696.35-15.1 696.18-14.45 695.8-13.83 695.43-13.2 694.8-12.68 694.18-12.15 693.38-11.73 692.58-11.3 691.48-11.08 690.38-10.85 689.13-10.85L689.13-10.85 682.08-10.8Q682.58-9.2 683.88-8.28 685.18-7.35 687.18-7.35L687.18-7.35Q689.33-7.35 691.58-7.9L691.58-7.9Q692.53-8.15 693.65-8.7 694.78-9.25 695.28-9.25L695.28-9.25Q696.13-9.25 696.6-8.75 697.08-8.25 697.08-7.5L697.08-7.5Q697.08-6.6 696.28-5.33 695.48-4.05 694.05-2.78 692.63-1.5 690.28-0.6 687.93 0.3 685.23 0.3ZM681.83-14L681.83-14Q685.28-14.05 685.58-14.05L685.58-14.05Q686.33-14.05 686.68-14.95L686.68-14.95Q686.93-15.6 686.93-16.75L686.93-16.75Q686.93-19.9 685.03-19.9L685.03-19.9Q684.33-19.9 683.65-19.15 682.98-18.4 682.48-17.03 681.98-15.65 681.83-14ZM716.63-4.15L716.58-13.45Q716.58-16.25 714.38-16.25L714.38-16.25Q713.33-16.25 712.65-15.38 711.98-14.5 711.88-13.05L711.88-13.05 711.88-5.35Q711.88-2.3 710.63-1.15 709.38 0 706.23 0L706.23 0Q703.28 0 702.2-1.38 701.13-2.75 701.13-5.9L701.13-5.9 701.13-18.2Q701.13-20.75 702.5-22.3 703.88-23.85 706.18-23.85L706.18-23.85Q708.08-23.85 709.38-23.3 710.68-22.75 711.33-21.4L711.33-21.4Q715.23-23.95 720.83-23.95L720.83-23.95Q724.38-23.95 725.95-21.15 727.53-18.35 727.53-11.95L727.53-11.95Q727.53-8.8 727.38-6.83 727.23-4.85 726.9-3.43 726.58-2 725.88-1.3 725.18-0.6 724.25-0.3 723.33 0 721.88 0L721.88 0Q719.08 0 717.85-1.05 716.63-2.1 716.63-4.15L716.63-4.15ZM734.52-10.7L734.52-10.7 734.52-16.6Q733.27-16.65 732.52-17.03 731.77-17.4 731.45-18 731.12-18.6 731.12-19.5L731.12-19.5Q731.12-22.35 734.57-22.6L734.57-22.6 734.57-27.25Q734.57-29.15 737.32-30.68 740.07-32.2 742.77-32.2L742.77-32.2Q744.42-32.2 744.92-31.25 745.42-30.3 745.42-28.4L745.42-28.4 745.47-22.65 746.82-22.65Q749.57-22.65 750.6-21.93 751.62-21.2 751.62-19.3L751.62-19.3Q751.62-18.5 751.32-17.95 751.02-17.4 750.35-17.1 749.67-16.8 748.72-16.68 747.77-16.55 746.37-16.55L746.37-16.55 745.47-16.55 745.47-11.05Q745.47-10.25 745.55-9.73 745.62-9.2 745.77-8.9 745.92-8.6 746.2-8.5 746.47-8.4 746.87-8.4L746.87-8.4Q747.47-8.4 747.87-8.83 748.27-9.25 748.5-9.78 748.72-10.3 749.1-10.73 749.47-11.15 749.97-11.15L749.97-11.15Q751.12-11.15 751.75-10.6 752.37-10.05 752.37-9.25L752.37-9.25Q752.37-7.9 751.85-6.35 751.32-4.8 750.32-3.35 749.32-1.9 747.55-0.95 745.77 0 743.57 0L743.57 0Q738.62 0 736.57-2.5 734.52-5 734.52-10.7ZM772.77-4.15L772.72-13.4Q772.72-16.25 770.52-16.25L770.52-16.25Q770.12-16.25 769.8-16.15 769.47-16.05 769.2-15.9 768.92-15.75 768.7-15.48 768.47-15.2 768.3-14.88 768.12-14.55 768.05-14.1 767.97-13.65 767.97-13.1L767.97-13.1 767.97-7.6Q767.97-3.5 766.65-1.78 765.32-0.05 762.62-0.05L762.62-0.05Q759.82-0.05 758.52-1.63 757.22-3.2 757.22-7.2L757.22-7.2 757.12-28.5Q757.12-31.6 758.62-33.05 760.12-34.5 762.62-34.5L762.62-34.5Q765.27-34.5 766.62-33.4 767.97-32.3 767.97-28.95L767.97-28.95 767.97-21.7Q771.67-23.95 776.97-23.95L776.97-23.95Q779.37-23.95 780.82-22.73 782.27-21.5 782.97-18.85 783.67-16.2 783.67-11.9L783.67-11.9Q783.67-9.7 783.6-8.1 783.52-6.5 783.37-5.18 783.22-3.85 782.92-3 782.62-2.15 782.22-1.55 781.82-0.95 781.2-0.63 780.57-0.3 779.82-0.15 779.07 0 778.02 0L778.02 0Q775.22 0 774-1.03 772.77-2.05 772.77-4.15L772.77-4.15ZM799.17-19.7L799.22-10.55Q799.22-7.7 801.42-7.7L801.42-7.7Q802.17-7.7 802.74-8.18 803.32-8.65 803.62-9.5 803.92-10.35 803.92-11.45L803.92-11.45 803.92-18.15Q803.92-19.85 804.52-21.13 805.12-22.4 806.27-23.1 807.42-23.8 808.97-23.8L808.97-23.8Q811.67-23.8 813.17-22.63 814.67-21.45 814.67-18.3L814.67-18.3 814.67-5.3Q814.67-2.25 813.42-1.1 812.17 0.05 809.02 0.05L809.02 0.05Q807.67 0.05 806.72-0.23 805.77-0.5 805.19-1.05 804.62-1.6 804.32-2.5L804.32-2.5Q802.27-1.15 799.99-0.6 797.72-0.05 794.92-0.05L794.92-0.05Q791.37-0.05 789.82-2.83 788.27-5.6 788.27-11.95L788.27-11.95Q788.27-15.1 788.42-17.07 788.57-19.05 788.89-20.48 789.22-21.9 789.89-22.6 790.57-23.3 791.49-23.6 792.42-23.9 793.92-23.9L793.92-23.9Q796.72-23.9 797.94-22.85 799.17-21.8 799.17-19.7L799.17-19.7ZM831.27-24.2L831.27-24.2Q835.92-24.2 839.02-22.3 842.12-20.4 842.12-18.15L842.12-18.15Q842.12-17.5 841.57-16.95 841.02-16.4 840.17-16.4L840.17-16.4Q839.42-16.4 838.52-16.93 837.62-17.45 836.82-18.05 836.02-18.65 834.72-19.15 833.42-19.65 831.97-19.65L831.97-19.65Q830.02-19.65 830.02-18.45L830.02-18.45Q830.02-17.6 831.02-17.1 832.02-16.6 833.94-16.05 835.87-15.5 836.87-15L836.87-15Q840.62-13.55 842.02-11.88 843.42-10.2 843.42-7.45L843.42-7.45Q843.42-6.1 842.67-4.78 841.92-3.45 840.42-2.27 838.92-1.1 836.34-0.38 833.77 0.35 830.47 0.35L830.47 0.35Q824.02 0.35 820.82-2.6L820.82-2.6Q819.27-4.05 819.27-5.6L819.27-5.6Q819.27-6.55 819.89-7.1 820.52-7.65 821.67-7.65L821.67-7.65Q822.82-7.65 825.17-6.53 827.52-5.4 829.52-5.4L829.52-5.4Q832.27-5.4 832.27-6.75L832.27-6.75Q832.27-7.45 830.82-7.88 829.37-8.3 827.02-8.9 824.67-9.5 823.27-10.4L823.27-10.4Q821.07-11.35 820.19-12.78 819.32-14.2 819.32-16.25L819.32-16.25Q819.32-19.75 822.64-21.98 825.97-24.2 831.27-24.2ZM847.46-30.8L847.46-30.8Q847.46-32.45 848.89-33.52 850.31-34.6 852.91-34.6L852.91-34.6Q858.36-34.6 858.36-30.8L858.36-30.8Q858.36-28.7 856.99-27.85 855.61-27 852.91-27L852.91-27Q850.56-27 849.01-27.9 847.46-28.8 847.46-30.8ZM858.31-18.35L858.31-5.35Q858.31-2.35 857.06-1.18 855.81 0 852.66 0L852.66 0Q849.71 0 848.64-1.38 847.56-2.75 847.56-5.9L847.56-5.9 847.56-18.2Q847.56-20.75 848.94-22.3 850.31-23.85 852.61-23.85L852.61-23.85Q855.31-23.85 856.81-22.68 858.31-21.5 858.31-18.35L858.31-18.35ZM871.81 0.3L871.81 0.3Q867.86 0.3 865.26-2.93 862.66-6.15 862.66-11.75L862.66-11.75Q862.66-17.45 865.24-20.83 867.81-24.2 871.81-24.2L871.81-24.2Q875.86-24.2 879.31-21.35L879.31-21.35Q880.66-23.85 883.66-23.85L883.66-23.85Q886.36-23.85 887.86-22.68 889.36-21.5 889.36-18.35L889.36-18.35 889.36-5.35Q889.36-2.35 888.11-1.18 886.86 0 883.71 0L883.71 0Q880.41 0 879.36-1.85L879.36-1.85Q876.16 0.3 871.81 0.3ZM878.61-7.2L878.61-16.55Q877.76-18 876.41-18L876.41-18Q875.11-18 874.31-16.1 873.51-14.2 873.51-11.75L873.51-11.75Q873.51-9.45 874.26-7.65 875.01-5.85 876.36-5.85L876.36-5.85Q877.76-5.85 878.61-7.2L878.61-7.2ZM905.81-24.2L905.81-24.2Q910.46-24.2 913.56-22.3 916.66-20.4 916.66-18.15L916.66-18.15Q916.66-17.5 916.11-16.95 915.56-16.4 914.71-16.4L914.71-16.4Q913.96-16.4 913.06-16.93 912.16-17.45 911.36-18.05 910.56-18.65 909.26-19.15 907.96-19.65 906.51-19.65L906.51-19.65Q904.56-19.65 904.56-18.45L904.56-18.45Q904.56-17.6 905.56-17.1 906.56-16.6 908.48-16.05 910.41-15.5 911.41-15L911.41-15Q915.16-13.55 916.56-11.88 917.96-10.2 917.96-7.45L917.96-7.45Q917.96-6.1 917.21-4.78 916.46-3.45 914.96-2.27 913.46-1.1 910.88-0.38 908.31 0.35 905.01 0.35L905.01 0.35Q898.56 0.35 895.36-2.6L895.36-2.6Q893.81-4.05 893.81-5.6L893.81-5.6Q893.81-6.55 894.43-7.1 895.06-7.65 896.21-7.65L896.21-7.65Q897.36-7.65 899.71-6.53 902.06-5.4 904.06-5.4L904.06-5.4Q906.81-5.4 906.81-6.75L906.81-6.75Q906.81-7.45 905.36-7.88 903.91-8.3 901.56-8.9 899.21-9.5 897.81-10.4L897.81-10.4Q895.61-11.35 894.73-12.78 893.86-14.2 893.86-16.25L893.86-16.25Q893.86-19.75 897.18-21.98 900.51-24.2 905.81-24.2ZM923.66-10.7L923.66-10.7 923.66-16.6Q922.41-16.65 921.66-17.03 920.91-17.4 920.58-18 920.26-18.6 920.26-19.5L920.26-19.5Q920.26-22.35 923.71-22.6L923.71-22.6 923.71-27.25Q923.71-29.15 926.46-30.68 929.21-32.2 931.91-32.2L931.91-32.2Q933.56-32.2 934.06-31.25 934.56-30.3 934.56-28.4L934.56-28.4 934.61-22.65 935.96-22.65Q938.71-22.65 939.73-21.93 940.76-21.2 940.76-19.3L940.76-19.3Q940.76-18.5 940.46-17.95 940.16-17.4 939.48-17.1 938.81-16.8 937.86-16.68 936.91-16.55 935.51-16.55L935.51-16.55 934.61-16.55 934.61-11.05Q934.61-10.25 934.68-9.73 934.76-9.2 934.91-8.9 935.06-8.6 935.33-8.5 935.61-8.4 936.01-8.4L936.01-8.4Q936.61-8.4 937.01-8.83 937.41-9.25 937.63-9.78 937.86-10.3 938.23-10.73 938.61-11.15 939.11-11.15L939.11-11.15Q940.26-11.15 940.88-10.6 941.51-10.05 941.51-9.25L941.51-9.25Q941.51-7.9 940.98-6.35 940.46-4.8 939.46-3.35 938.46-1.9 936.68-0.95 934.91 0 932.71 0L932.71 0Q927.76 0 925.71-2.5 923.66-5 923.66-10.7Z" opacity="1" transform="matrix(1,0,0,1,0,0)" fill="#ffffff" class="slogan-text-1" data-fill-palette-color="secondary" id="text-1"></path></svg></g></svg></g></svg></g></svg></g><g transform="matrix(1,0,0,1,0,3.411428583643726)"><svg viewBox="0 0 151.05858048 156.61946369185245" height="156.61946369185245" width="151.05858048"><g><svg xmlns="http://www.w3.org/2000/svg" xmlns:xlink="http://www.w3.org/1999/xlink" version="1.1" viewBox="3.8520002365112305 2.2255795001983643 88.29600524902344 91.54642486572266" x="0" y="0" height="156.61946369185245" width="151.05858048" class="icon-icon-0" data-fill-palette-color="accent" id="icon-0"><path d="M48.012 71.772c-17.236 0-32-21.064-32-26v-16c0-1.104 0.896-2 2-2s2 0.896 2 2v16c0.14 3.3 13.168 22 28 22s27.86-18.7 28-22.008v-15.992c0-1.104 0.9-2 2-2s2 0.896 2 2v16c0.004 4.94-14.76 26-32 26z" fill="#804dee" data-fill-palette-color="accent"></path><path d="M90.14 93.772c-1.108 0-2-0.9-2-2 0-14.58-7.272-26-16.564-26h-7.564c-1.104 0-2-0.9-2-2 0-1.108 0.896-2 2-2h7.564c11.532 0 20.572 13.172 20.572 30-0.008 1.104-0.896 2-2.008 2z" fill="#804dee" data-fill-palette-color="accent"></path><path d="M5.852 93.772c-1.104 0-2-0.9-2-2 0-17.384 8.028-30 19.092-30h9.068c1.104 0 2 0.892 2 2 0 1.1-0.896 2-2 2h-9.068c-8.604 0-15.092 11.172-15.092 26 0 1.104-0.896 2-2 2z" fill="#804dee" data-fill-palette-color="accent"></path><path d="M24.012 39.772c-0.532 0-1.04-0.212-1.416-0.584-9.248-9.248-7.756-14.548-5.432-19.188 0.436-0.876 0.852-1.704 0.852-2.232 0-5.2 6.32-14 30-14 4.652 0 8.888 0.352 12.612 1.044 3.624-3.128 9.672-3.584 12.804-0.456 0.572 0.58 0.744 1.432 0.428 2.188-0.312 0.748-1.04 1.236-1.852 1.236-0.46 0-0.936 0.064-1.32 0.388 5.36 2.928 7.32 6.796 7.32 9.612 0 0.636 0.492 1.832 0.968 2.988 1.108 2.728 2.5 6.124 0.976 9.432-1.1 2.416-3.492 4.204-7.312 5.468-0.204 0.076-0.416 0.1-0.632 0.1-6.664 0-13.216-4.752-16.252-9.308-7.716 10.388-28.76 13.312-31.744 13.312zM48.012 7.772c-21.224 0-26 7.408-26 10 0 1.472-0.648 2.764-1.272 4.02-1.5 3.004-3.2 6.404 4.076 13.94 5.436-0.432 25.968-4.588 29.304-14.592 0.312-0.924 1.252-1.5 2.216-1.34 0.968 0.156 1.68 0.992 1.68 1.972 0 2.608 6.752 9.78 13.688 9.996 2.484-0.876 4.048-1.96 4.624-3.236 0.796-1.752-0.14-4.036-1.048-6.256-0.648-1.584-1.264-3.084-1.264-4.504 0-1.416-1.416-4.472-6.736-6.844-0.836-0.376-1.324-1.264-1.156-2.176 0.172-1 0.532-1.876 1.04-2.596-1.624 0.172-3.372 1.02-4.408 2.164-0.476 0.536-1.188 0.756-1.9 0.616-3.7-0.772-8.028-1.164-12.844-1.164z" fill="#804dee" data-fill-palette-color="accent"></path><path d="M70.016 49.772h-16c-1.104 0-2-0.896-2-2v-12c0-1.104 0.896-2 2-2h16c1.1 0 2 0.896 2 2v12c0 1.104-0.9 2-2 2zM56.016 45.772h12v-8h-12v8z" fill="#804dee" data-fill-palette-color="accent"></path><path d="M42.012 49.772h-16c-1.104 0-2-0.896-2-2v-10c0-1.104 0.896-2 2-2s2 0.896 2 2v8h12v-8h-4c-1.104 0-2-0.896-2-2s0.896-2 2-2h6c1.104 0 2 0.896 2 2v12c0 1.104-0.896 2-2 2z" fill="#804dee" data-fill-palette-color="accent"></path><path d="M52.016 41.772h-8c-1.104 0-2-0.896-2-2s0.896-2 2-2h8c1.1 0 2 0.896 2 2s-0.9 2-2 2z" fill="#804dee" data-fill-palette-color="accent"></path></svg></g></svg></g></svg></g></svg></g><g><path d="M0 123.6c0-68.262 55.338-123.6 123.6-123.6 48.28 0 90.094 27.681 110.438 68.039l-3.698 0c-20.07-38.479-60.337-64.749-106.74-64.749-66.445 0-120.31 53.865-120.31 120.31 0 66.445 53.865 120.31 120.31 120.31 46.403 0 86.669-26.27 106.74-64.749h3.698c-20.344 40.357-62.158 68.039-110.438 68.039-68.262 0-123.6-55.338-123.6-123.6z" fill="#804dee" stroke="transparent" data-fill-palette-color="tertiary"></path></g></svg></g><defs></defs></svg><rect width="395.52" height="247.2" fill="none" stroke="none" visibility="hidden"></rect></g></svg></g></svg>